<mxfile host="app.diagrams.net" modified="2024-02-13T10:18:10.237Z" agent="Mozilla/5.0 (Macintosh; Intel Mac OS X 10_15_7) AppleWebKit/537.36 (KHTML, like Gecko) Chrome/121.0.0.0 Safari/537.36" etag="pFrs4km4_5SsSJn_eVf6" version="23.1.3" type="device">
  <diagram name="Page-1" id="c4acf3e9-155e-7222-9cf6-157b1a14988f">
    <mxGraphModel dx="1036" dy="587" grid="1" gridSize="10" guides="1" tooltips="1" connect="1" arrows="1" fold="1" page="1" pageScale="1" pageWidth="850" pageHeight="1100" background="none" math="0" shadow="0">
      <root>
        <mxCell id="0" />
        <mxCell id="1" parent="0" />
        <mxCell id="17acba5748e5396b-1" value="s" style="shape=umlFrame;whiteSpace=wrap;html=1;rounded=0;shadow=0;comic=0;labelBackgroundColor=none;strokeWidth=1;fontFamily=Verdana;fontSize=10;align=center;" parent="1" vertex="1">
          <mxGeometry x="20" y="20" width="820" height="1060" as="geometry" />
        </mxCell>
        <mxCell id="5d2195bd80daf111-36" style="edgeStyle=orthogonalEdgeStyle;rounded=0;html=1;dashed=1;labelBackgroundColor=none;startFill=0;endArrow=open;endFill=0;endSize=10;fontFamily=Verdana;fontSize=10;" parent="1" edge="1">
          <mxGeometry relative="1" as="geometry">
            <Array as="points">
              <mxPoint x="550" y="520" />
            </Array>
            <mxPoint x="490" y="520" as="targetPoint" />
          </mxGeometry>
        </mxCell>
        <mxCell id="5d2195bd80daf111-15" value="&lt;p style=&quot;margin:0px;margin-top:4px;text-align:center;&quot;&gt;&lt;i style=&quot;border-color: var(--border-color);&quot;&gt;&lt;b style=&quot;border-color: var(--border-color);&quot;&gt;Loadable&lt;/b&gt;&lt;/i&gt;&lt;i&gt;&lt;br&gt;&lt;/i&gt;&lt;/p&gt;&lt;p style=&quot;margin:0px;margin-top:4px;text-align:center;&quot;&gt;&lt;i&gt;&amp;lt;&amp;lt;Interface&amp;gt;&amp;gt;&lt;/i&gt;&lt;/p&gt;&lt;hr size=&quot;1&quot;&gt;&lt;p style=&quot;margin:0px;margin-left:4px;&quot;&gt;+ loadCar: void&lt;br&gt;+ unloadCar: Car&lt;/p&gt;" style="verticalAlign=top;align=left;overflow=fill;fontSize=12;fontFamily=Helvetica;html=1;rounded=0;shadow=0;comic=0;labelBackgroundColor=none;strokeWidth=1" parent="1" vertex="1">
          <mxGeometry x="620" y="420" width="190" height="110" as="geometry" />
        </mxCell>
        <mxCell id="5d2195bd80daf111-18" value="&lt;p style=&quot;margin:0px;margin-top:4px;text-align:center;&quot;&gt;&lt;i&gt;Car&lt;/i&gt;&lt;/p&gt;&lt;p style=&quot;margin:0px;margin-top:4px;text-align:center;&quot;&gt;&lt;i&gt;{abstract}&lt;/i&gt;&lt;/p&gt;&lt;hr size=&quot;1&quot;&gt;&lt;p style=&quot;margin:0px;margin-left:4px;&quot;&gt;+ enginepower: double&lt;br&gt;+ currentSpeed: double&lt;/p&gt;&lt;p style=&quot;margin:0px;margin-left:4px;&quot;&gt;- x: int&amp;nbsp;&lt;/p&gt;&lt;p style=&quot;margin:0px;margin-left:4px;&quot;&gt;- y: int&lt;/p&gt;&lt;hr size=&quot;1&quot;&gt;&lt;p style=&quot;margin:0px;margin-left:4px;&quot;&gt;- increamentSpeed(double): void&lt;br&gt;- decreamentSpeed(double): void&lt;/p&gt;&lt;p style=&quot;margin:0px;margin-left:4px;&quot;&gt;# &lt;i&gt;speedFactor&lt;/i&gt;(): double&lt;/p&gt;" style="verticalAlign=top;align=left;overflow=fill;fontSize=12;fontFamily=Helvetica;html=1;rounded=0;shadow=0;comic=0;labelBackgroundColor=none;strokeWidth=1" parent="1" vertex="1">
          <mxGeometry x="345" y="250" width="220" height="170" as="geometry" />
        </mxCell>
        <mxCell id="5d2195bd80daf111-19" value="&lt;p style=&quot;margin:0px;margin-top:4px;text-align:center;&quot;&gt;&lt;b style=&quot;border-color: var(--border-color);&quot;&gt;Moveable&lt;/b&gt;&lt;i&gt;&lt;br&gt;&lt;/i&gt;&lt;/p&gt;&lt;p style=&quot;margin:0px;margin-top:4px;text-align:center;&quot;&gt;&lt;i&gt;&amp;lt;&amp;lt;Interface&amp;gt;&amp;gt;&lt;/i&gt;&lt;/p&gt;&lt;hr size=&quot;1&quot;&gt;&lt;p style=&quot;margin:0px;margin-left:4px;&quot;&gt;+ move: void&lt;br&gt;+ turnRight: void&lt;/p&gt;&lt;p style=&quot;margin:0px;margin-left:4px;&quot;&gt;+ turnLeft: void&lt;br&gt;&lt;/p&gt;" style="verticalAlign=top;align=left;overflow=fill;fontSize=12;fontFamily=Helvetica;html=1;rounded=0;shadow=0;comic=0;labelBackgroundColor=none;strokeWidth=1" parent="1" vertex="1">
          <mxGeometry x="40" y="120" width="190" height="110" as="geometry" />
        </mxCell>
        <mxCell id="5d2195bd80daf111-28" style="edgeStyle=orthogonalEdgeStyle;rounded=0;html=1;dashed=1;labelBackgroundColor=none;startFill=0;endArrow=open;endFill=0;endSize=10;fontFamily=Verdana;fontSize=10;" parent="1" edge="1">
          <mxGeometry relative="1" as="geometry">
            <Array as="points">
              <mxPoint x="320" y="490" />
              <mxPoint x="320" y="460" />
            </Array>
            <mxPoint x="250" y="490" as="sourcePoint" />
          </mxGeometry>
        </mxCell>
        <mxCell id="5d2195bd80daf111-29" style="edgeStyle=orthogonalEdgeStyle;rounded=0;html=1;dashed=1;labelBackgroundColor=none;startFill=0;endArrow=open;endFill=0;endSize=10;fontFamily=Verdana;fontSize=10;" parent="1" edge="1">
          <mxGeometry relative="1" as="geometry">
            <mxPoint x="250" y="520" as="sourcePoint" />
          </mxGeometry>
        </mxCell>
        <mxCell id="5d2195bd80daf111-30" style="edgeStyle=orthogonalEdgeStyle;rounded=0;html=1;dashed=1;labelBackgroundColor=none;startFill=0;endArrow=open;endFill=0;endSize=10;fontFamily=Verdana;fontSize=10;" parent="1" edge="1">
          <mxGeometry relative="1" as="geometry">
            <Array as="points">
              <mxPoint x="300" y="580" />
              <mxPoint x="300" y="642" />
            </Array>
            <mxPoint x="250" y="580" as="sourcePoint" />
          </mxGeometry>
        </mxCell>
        <mxCell id="5d2195bd80daf111-31" style="edgeStyle=orthogonalEdgeStyle;rounded=0;html=1;dashed=1;labelBackgroundColor=none;startFill=0;endArrow=open;endFill=0;endSize=10;fontFamily=Verdana;fontSize=10;" parent="1" edge="1">
          <mxGeometry relative="1" as="geometry">
            <Array as="points">
              <mxPoint x="350" y="560" />
              <mxPoint x="350" y="560" />
            </Array>
            <mxPoint x="250" y="560" as="sourcePoint" />
          </mxGeometry>
        </mxCell>
        <mxCell id="5d2195bd80daf111-32" style="edgeStyle=orthogonalEdgeStyle;rounded=0;html=1;dashed=1;labelBackgroundColor=none;startFill=0;endArrow=open;endFill=0;endSize=10;fontFamily=Verdana;fontSize=10;" parent="1" edge="1">
          <mxGeometry relative="1" as="geometry">
            <Array as="points">
              <mxPoint x="170" y="780" />
            </Array>
            <mxPoint x="170" y="590" as="sourcePoint" />
          </mxGeometry>
        </mxCell>
        <mxCell id="5d2195bd80daf111-33" style="edgeStyle=orthogonalEdgeStyle;rounded=0;html=1;dashed=1;labelBackgroundColor=none;startFill=0;endArrow=open;endFill=0;endSize=10;fontFamily=Verdana;fontSize=10;" parent="1" edge="1">
          <mxGeometry relative="1" as="geometry">
            <Array as="points">
              <mxPoint x="140" y="978" />
            </Array>
            <mxPoint x="140" y="590" as="sourcePoint" />
          </mxGeometry>
        </mxCell>
        <mxCell id="5d2195bd80daf111-37" style="edgeStyle=orthogonalEdgeStyle;rounded=0;html=1;dashed=1;labelBackgroundColor=none;startFill=0;endArrow=open;endFill=0;endSize=10;fontFamily=Verdana;fontSize=10;" parent="1" edge="1">
          <mxGeometry relative="1" as="geometry">
            <Array as="points">
              <mxPoint x="570" y="590" />
            </Array>
            <mxPoint x="650" y="590" as="sourcePoint" />
          </mxGeometry>
        </mxCell>
        <mxCell id="BovTCXZvYHQh8eO-tCcy-2" value="&lt;p style=&quot;margin:0px;margin-top:4px;text-align:center;&quot;&gt;Volvo240&lt;/p&gt;&lt;hr size=&quot;1&quot;&gt;&lt;p style=&quot;margin:0px;margin-left:4px;&quot;&gt;+ enginepower: double&lt;br&gt;+ currentSpeed: double&lt;/p&gt;&lt;p style=&quot;margin:0px;margin-left:4px;&quot;&gt;+ &lt;u&gt;TrimFactor:&lt;/u&gt;&amp;nbsp;double&lt;/p&gt;&lt;hr size=&quot;1&quot;&gt;&lt;p style=&quot;margin:0px;margin-left:4px;&quot;&gt;&lt;br&gt;&lt;/p&gt;" style="verticalAlign=top;align=left;overflow=fill;fontSize=12;fontFamily=Helvetica;html=1;rounded=0;shadow=0;comic=0;labelBackgroundColor=none;strokeWidth=1" parent="1" vertex="1">
          <mxGeometry x="360" y="40" width="190" height="140" as="geometry" />
        </mxCell>
        <mxCell id="BovTCXZvYHQh8eO-tCcy-3" value="&lt;p style=&quot;margin:0px;margin-top:4px;text-align:center;&quot;&gt;Saab95&lt;/p&gt;&lt;hr size=&quot;1&quot;&gt;&lt;p style=&quot;margin:0px;margin-left:4px;&quot;&gt;+ enginepower: double&lt;br&gt;+ currentSpeed: double&lt;/p&gt;&lt;p style=&quot;margin:0px;margin-left:4px;&quot;&gt;- turbo: boolean&lt;/p&gt;&lt;hr size=&quot;1&quot;&gt;&lt;p style=&quot;margin:0px;margin-left:4px;&quot;&gt;&lt;span style=&quot;background-color: initial;&quot;&gt;+ setTurboOn: boolean&lt;/span&gt;&lt;br&gt;&lt;/p&gt;&lt;p style=&quot;margin:0px;margin-left:4px;&quot;&gt;+ setTurboOff: boolean&lt;/p&gt;" style="verticalAlign=top;align=left;overflow=fill;fontSize=12;fontFamily=Helvetica;html=1;rounded=0;shadow=0;comic=0;labelBackgroundColor=none;strokeWidth=1" parent="1" vertex="1">
          <mxGeometry x="610" y="40" width="190" height="140" as="geometry" />
        </mxCell>
        <mxCell id="BovTCXZvYHQh8eO-tCcy-4" value="&lt;p style=&quot;margin:0px;margin-top:4px;text-align:center;&quot;&gt;&lt;i&gt;Truck&lt;/i&gt;&lt;/p&gt;&lt;p style=&quot;margin:0px;margin-top:4px;text-align:center;&quot;&gt;&lt;i&gt;{abstract}&lt;/i&gt;&lt;br&gt;&lt;/p&gt;&lt;hr size=&quot;1&quot;&gt;&lt;p style=&quot;margin:0px;margin-left:4px;&quot;&gt;+ enginepower: double&lt;br&gt;+ currentSpeed: double&lt;/p&gt;&lt;hr size=&quot;1&quot;&gt;&lt;p style=&quot;margin:0px;margin-left:4px;&quot;&gt;+ &lt;i&gt;lowerPlatform&lt;/i&gt;: void&lt;br&gt;&lt;/p&gt;&lt;p style=&quot;margin:0px;margin-left:4px;&quot;&gt;+ &lt;i&gt;raisePlatform&lt;/i&gt;: void&lt;/p&gt;" style="verticalAlign=top;align=left;overflow=fill;fontSize=12;fontFamily=Helvetica;html=1;rounded=0;shadow=0;comic=0;labelBackgroundColor=none;strokeWidth=1" parent="1" vertex="1">
          <mxGeometry x="360" y="450" width="190" height="140" as="geometry" />
        </mxCell>
        <mxCell id="BovTCXZvYHQh8eO-tCcy-5" value="&lt;p style=&quot;margin:0px;margin-top:4px;text-align:center;&quot;&gt;Scania&lt;/p&gt;&lt;hr size=&quot;1&quot;&gt;&lt;p style=&quot;margin:0px;margin-left:4px;&quot;&gt;+ enginepower: double&lt;br&gt;+ currentSpeed: double&lt;/p&gt;&lt;p style=&quot;margin:0px;margin-left:4px;&quot;&gt;- platformAngle: double&lt;/p&gt;&lt;hr size=&quot;1&quot;&gt;&lt;p style=&quot;margin:0px;margin-left:4px;&quot;&gt;&lt;br&gt;&lt;/p&gt;" style="verticalAlign=top;align=left;overflow=fill;fontSize=12;fontFamily=Helvetica;html=1;rounded=0;shadow=0;comic=0;labelBackgroundColor=none;strokeWidth=1" parent="1" vertex="1">
          <mxGeometry x="60" y="450" width="190" height="100" as="geometry" />
        </mxCell>
        <mxCell id="BovTCXZvYHQh8eO-tCcy-6" value="&lt;p style=&quot;margin:0px;margin-top:4px;text-align:center;&quot;&gt;CarTransport&lt;/p&gt;&lt;hr size=&quot;1&quot;&gt;&lt;p style=&quot;margin:0px;margin-left:4px;&quot;&gt;+ enginepower: double&lt;br&gt;+ currentSpeed: double&lt;/p&gt;&lt;p style=&quot;margin:0px;margin-left:4px;&quot;&gt;- carsLoaded: ArrayList&amp;lt;Car&amp;gt;&lt;/p&gt;&lt;p style=&quot;margin:0px;margin-left:4px;&quot;&gt;- maxCapacity: int&lt;/p&gt;&lt;p style=&quot;margin:0px;margin-left:4px;&quot;&gt;- platformActive: boolean&lt;/p&gt;&lt;hr size=&quot;1&quot;&gt;&lt;p style=&quot;margin:0px;margin-left:4px;&quot;&gt;&lt;span style=&quot;background-color: initial;&quot;&gt;+ loadCar: void&lt;/span&gt;&lt;br&gt;&lt;/p&gt;&lt;p style=&quot;margin:0px;margin-left:4px;&quot;&gt;+ unloadCar: Car&lt;/p&gt;&lt;p style=&quot;margin:0px;margin-left:4px;&quot;&gt;+ getPlatformActive: boolean&lt;/p&gt;" style="verticalAlign=top;align=left;overflow=fill;fontSize=12;fontFamily=Helvetica;html=1;rounded=0;shadow=0;comic=0;labelBackgroundColor=none;strokeWidth=1" parent="1" vertex="1">
          <mxGeometry x="620" y="600" width="190" height="180" as="geometry" />
        </mxCell>
        <mxCell id="BovTCXZvYHQh8eO-tCcy-7" value="&lt;p style=&quot;margin:0px;margin-top:4px;text-align:center;&quot;&gt;Workshop&lt;/p&gt;&lt;hr size=&quot;1&quot;&gt;&lt;p style=&quot;margin:0px;margin-left:4px;&quot;&gt;&lt;span style=&quot;background-color: initial;&quot;&gt;- carsLoaded: ArrayList&amp;lt;Car&amp;gt;&lt;/span&gt;&lt;br&gt;&lt;/p&gt;&lt;p style=&quot;margin:0px;margin-left:4px;&quot;&gt;- maxCapacity: int&lt;/p&gt;&lt;hr size=&quot;1&quot;&gt;&lt;p style=&quot;margin:0px;margin-left:4px;&quot;&gt;+ loadCar: void&lt;br style=&quot;border-color: var(--border-color);&quot;&gt;+ unloadCar: Car&lt;br&gt;&lt;/p&gt;" style="verticalAlign=top;align=left;overflow=fill;fontSize=12;fontFamily=Helvetica;html=1;rounded=0;shadow=0;comic=0;labelBackgroundColor=none;strokeWidth=1" parent="1" vertex="1">
          <mxGeometry x="620" y="250" width="190" height="120" as="geometry" />
        </mxCell>
        <mxCell id="BovTCXZvYHQh8eO-tCcy-8" value="&lt;p style=&quot;margin:0px;margin-top:4px;text-align:center;&quot;&gt;CarController&lt;/p&gt;&lt;hr size=&quot;1&quot;&gt;&lt;p style=&quot;margin:0px;margin-left:4px;&quot;&gt;+&lt;/p&gt;&lt;hr size=&quot;1&quot;&gt;&lt;p style=&quot;margin:0px;margin-left:4px;&quot;&gt;+&amp;nbsp;&lt;br&gt;&lt;/p&gt;" style="verticalAlign=top;align=left;overflow=fill;fontSize=12;fontFamily=Helvetica;html=1;rounded=0;shadow=0;comic=0;labelBackgroundColor=none;strokeWidth=1" parent="1" vertex="1">
          <mxGeometry x="70" y="800" width="220" height="210" as="geometry" />
        </mxCell>
        <mxCell id="BovTCXZvYHQh8eO-tCcy-9" value="&lt;p style=&quot;margin:0px;margin-top:4px;text-align:center;&quot;&gt;CarView&lt;/p&gt;&lt;hr size=&quot;1&quot;&gt;&lt;p style=&quot;margin:0px;margin-left:4px;&quot;&gt;+&lt;/p&gt;&lt;hr size=&quot;1&quot;&gt;&lt;p style=&quot;margin:0px;margin-left:4px;&quot;&gt;+&amp;nbsp;&lt;br&gt;&lt;/p&gt;" style="verticalAlign=top;align=left;overflow=fill;fontSize=12;fontFamily=Helvetica;html=1;rounded=0;shadow=0;comic=0;labelBackgroundColor=none;strokeWidth=1" parent="1" vertex="1">
          <mxGeometry x="310" y="870" width="190" height="140" as="geometry" />
        </mxCell>
        <mxCell id="BovTCXZvYHQh8eO-tCcy-10" value="&lt;p style=&quot;margin:0px;margin-top:4px;text-align:center;&quot;&gt;DrawPanel&lt;/p&gt;&lt;hr size=&quot;1&quot;&gt;&lt;p style=&quot;margin:0px;margin-left:4px;&quot;&gt;+&lt;/p&gt;&lt;hr size=&quot;1&quot;&gt;&lt;p style=&quot;margin:0px;margin-left:4px;&quot;&gt;&amp;nbsp; moveIt: Car&lt;br&gt;&lt;/p&gt;&lt;p style=&quot;margin:0px;margin-left:4px;&quot;&gt;+ loadCarImages: Arraylist&amp;lt;Car&amp;gt;&lt;/p&gt;&lt;p style=&quot;margin:0px;margin-left:4px;&quot;&gt;+&amp;nbsp;loadWorkshopImages: Arrraylist&amp;lt;Workshop&amp;gt;&lt;/p&gt;&lt;p style=&quot;margin:0px;margin-left:4px;&quot;&gt;+ drawPanel: int&lt;/p&gt;" style="verticalAlign=top;align=left;overflow=fill;fontSize=12;fontFamily=Helvetica;html=1;rounded=0;shadow=0;comic=0;labelBackgroundColor=none;strokeWidth=1" parent="1" vertex="1">
          <mxGeometry x="540" y="870" width="260" height="140" as="geometry" />
        </mxCell>
        <mxCell id="BovTCXZvYHQh8eO-tCcy-11" value="" style="endArrow=classic;html=1;rounded=0;entryX=0.5;entryY=1;entryDx=0;entryDy=0;exitX=0.5;exitY=0;exitDx=0;exitDy=0;" parent="1" source="5d2195bd80daf111-18" target="BovTCXZvYHQh8eO-tCcy-2" edge="1">
          <mxGeometry width="50" height="50" relative="1" as="geometry">
            <mxPoint x="200" y="690" as="sourcePoint" />
            <mxPoint x="250" y="640" as="targetPoint" />
          </mxGeometry>
        </mxCell>
        <mxCell id="BovTCXZvYHQh8eO-tCcy-12" value="" style="endArrow=classic;html=1;rounded=0;exitX=0.5;exitY=1;exitDx=0;exitDy=0;" parent="1" source="5d2195bd80daf111-18" target="BovTCXZvYHQh8eO-tCcy-4" edge="1">
          <mxGeometry width="50" height="50" relative="1" as="geometry">
            <mxPoint x="465" y="260" as="sourcePoint" />
            <mxPoint x="465" y="190" as="targetPoint" />
          </mxGeometry>
        </mxCell>
        <mxCell id="BovTCXZvYHQh8eO-tCcy-13" value="" style="endArrow=classic;html=1;rounded=0;entryX=0.5;entryY=1;entryDx=0;entryDy=0;exitX=1;exitY=0;exitDx=0;exitDy=0;" parent="1" source="5d2195bd80daf111-18" target="BovTCXZvYHQh8eO-tCcy-3" edge="1">
          <mxGeometry width="50" height="50" relative="1" as="geometry">
            <mxPoint x="465" y="260" as="sourcePoint" />
            <mxPoint x="465" y="190" as="targetPoint" />
          </mxGeometry>
        </mxCell>
        <mxCell id="BovTCXZvYHQh8eO-tCcy-14" value="" style="endArrow=classic;html=1;rounded=0;exitX=0.5;exitY=1;exitDx=0;exitDy=0;entryX=0;entryY=0.5;entryDx=0;entryDy=0;" parent="1" source="BovTCXZvYHQh8eO-tCcy-4" target="BovTCXZvYHQh8eO-tCcy-6" edge="1">
          <mxGeometry width="50" height="50" relative="1" as="geometry">
            <mxPoint x="465" y="400" as="sourcePoint" />
            <mxPoint x="620" y="641" as="targetPoint" />
          </mxGeometry>
        </mxCell>
        <mxCell id="BovTCXZvYHQh8eO-tCcy-15" value="" style="endArrow=block;dashed=1;endFill=0;endSize=12;html=1;rounded=0;exitX=0.5;exitY=0;exitDx=0;exitDy=0;entryX=0.5;entryY=1;entryDx=0;entryDy=0;" parent="1" source="BovTCXZvYHQh8eO-tCcy-6" target="5d2195bd80daf111-15" edge="1">
          <mxGeometry width="160" relative="1" as="geometry">
            <mxPoint x="360" y="520" as="sourcePoint" />
            <mxPoint x="520" y="520" as="targetPoint" />
          </mxGeometry>
        </mxCell>
        <mxCell id="BovTCXZvYHQh8eO-tCcy-16" value="" style="endArrow=block;dashed=1;endFill=0;endSize=12;html=1;rounded=0;exitX=0.5;exitY=1;exitDx=0;exitDy=0;" parent="1" source="BovTCXZvYHQh8eO-tCcy-7" target="5d2195bd80daf111-15" edge="1">
          <mxGeometry width="160" relative="1" as="geometry">
            <mxPoint x="725" y="610" as="sourcePoint" />
            <mxPoint x="715" y="470" as="targetPoint" />
          </mxGeometry>
        </mxCell>
        <mxCell id="BovTCXZvYHQh8eO-tCcy-17" value="" style="endArrow=classic;html=1;rounded=0;entryX=1;entryY=0.5;entryDx=0;entryDy=0;" parent="1" target="BovTCXZvYHQh8eO-tCcy-5" edge="1" source="BovTCXZvYHQh8eO-tCcy-4">
          <mxGeometry width="50" height="50" relative="1" as="geometry">
            <mxPoint x="250" y="520" as="sourcePoint" />
            <mxPoint x="465" y="600" as="targetPoint" />
          </mxGeometry>
        </mxCell>
        <mxCell id="BovTCXZvYHQh8eO-tCcy-18" value="" style="endArrow=block;dashed=1;endFill=0;endSize=12;html=1;rounded=0;exitX=0;exitY=0.5;exitDx=0;exitDy=0;entryX=1;entryY=0.5;entryDx=0;entryDy=0;" parent="1" source="5d2195bd80daf111-18" target="5d2195bd80daf111-19" edge="1">
          <mxGeometry width="160" relative="1" as="geometry">
            <mxPoint x="725" y="380" as="sourcePoint" />
            <mxPoint x="725" y="430" as="targetPoint" />
          </mxGeometry>
        </mxCell>
        <mxCell id="GVjMOmft21dilm8lDf8k-5" value="" style="endArrow=open;html=1;rounded=0;endFill=0;dashed=1;strokeColor=#000000;strokeWidth=1;exitX=0.004;exitY=0.638;exitDx=0;exitDy=0;entryX=0.991;entryY=0.565;entryDx=0;entryDy=0;entryPerimeter=0;exitPerimeter=0;" edge="1" parent="1" source="BovTCXZvYHQh8eO-tCcy-7" target="5d2195bd80daf111-18">
          <mxGeometry width="50" height="50" relative="1" as="geometry">
            <mxPoint x="565" y="430" as="sourcePoint" />
            <mxPoint x="620" y="330" as="targetPoint" />
          </mxGeometry>
        </mxCell>
      </root>
    </mxGraphModel>
  </diagram>
</mxfile>
